<svg width="16" height="16" viewBox="0 0 16 16" fill="none" xmlns="http://www.w3.org/2000/svg">
<path d="M6 8C7.65685 8 9 6.65685 9 5C9 3.34315 7.65685 2 6 2C4.34315 2 3 3.34315 3 5C3 6.65685 4.34315 8 6 8ZM8 5C8 6.10457 7.10457 7 6 7C4.89543 7 4 6.10457 4 5C4 3.89543 4.89543 3 6 3C7.10457 3 8 3.89543 8 5Z" fill="black"/>
<path d="M12 13C12 14 11 14 11 14H1C1 14 0 14 0 13C0 12 1 9 6 9C11 9 12 12 12 13ZM11 12.9965C10.9986 12.7497 10.8462 12.0104 10.1679 11.3321C9.51563 10.6798 8.2891 10 5.99999 10C3.71088 10 2.48435 10.6798 1.8321 11.3321C1.15375 12.0104 1.00142 12.7497 1 12.9965H11Z" fill="black"/>
<path fill-rule="evenodd" clip-rule="evenodd" d="M12.1464 5.14645C12.3417 4.95118 12.6583 4.95118 12.8536 5.14645L14 6.29289L15.1464 5.14645C15.3417 4.95118 15.6583 4.95118 15.8536 5.14645C16.0488 5.34171 16.0488 5.65829 15.8536 5.85355L14.7071 7L15.8536 8.14645C16.0488 8.34171 16.0488 8.65829 15.8536 8.85355C15.6583 9.04882 15.3417 9.04882 15.1464 8.85355L14 7.70711L12.8536 8.85355C12.6583 9.04882 12.3417 9.04882 12.1464 8.85355C11.9512 8.65829 11.9512 8.34171 12.1464 8.14645L13.2929 7L12.1464 5.85355C11.9512 5.65829 11.9512 5.34171 12.1464 5.14645Z" fill="black"/>
</svg>
